<?xml version="1.0" encoding="UTF-8" standalone="no"?>
<!-- Created with Inkscape (http://www.inkscape.org/) -->

<svg
   width="210mm"
   height="297mm"
   viewBox="0 0 210 297"
   version="1.1"
   id="svg5"
   sodipodi:docname="logo_demify.svg"
   inkscape:version="1.2.2 (b0a8486541, 2022-12-01)"
   xmlns:inkscape="http://www.inkscape.org/namespaces/inkscape"
   xmlns:sodipodi="http://sodipodi.sourceforge.net/DTD/sodipodi-0.dtd"
   xmlns="http://www.w3.org/2000/svg"
   xmlns:svg="http://www.w3.org/2000/svg">
  <sodipodi:namedview
     id="namedview7"
     pagecolor="#ffffff"
     bordercolor="#000000"
     borderopacity="0.25"
     inkscape:showpageshadow="2"
     inkscape:pageopacity="0.0"
     inkscape:pagecheckerboard="0"
     inkscape:deskcolor="#d1d1d1"
     inkscape:document-units="mm"
     showgrid="false"
     inkscape:zoom="0.64306408"
     inkscape:cx="396.53902"
     inkscape:cy="561.37485"
     inkscape:window-width="1366"
     inkscape:window-height="702"
     inkscape:window-x="0"
     inkscape:window-y="32"
     inkscape:window-maximized="1"
     inkscape:current-layer="layer1" />
  <defs
     id="defs2">
    <inkscape:path-effect
       effect="spiro"
       id="path-effect1109"
       is_visible="true"
       lpeversion="1" />
    <inkscape:path-effect
       effect="spiro"
       id="path-effect1105"
       is_visible="true"
       lpeversion="1" />
    <inkscape:path-effect
       effect="spiro"
       id="path-effect1101"
       is_visible="true"
       lpeversion="1" />
    <inkscape:path-effect
       effect="spiro"
       id="path-effect1097"
       is_visible="true"
       lpeversion="1" />
    <inkscape:path-effect
       effect="bspline"
       id="path-effect1035"
       is_visible="true"
       lpeversion="1"
       weight="33.333333"
       steps="2"
       helper_size="0"
       apply_no_weight="true"
       apply_with_weight="true"
       only_selected="false" />
    <inkscape:path-effect
       effect="bspline"
       id="path-effect562"
       is_visible="true"
       lpeversion="1"
       weight="33.333333"
       steps="2"
       helper_size="0"
       apply_no_weight="true"
       apply_with_weight="true"
       only_selected="false" />
    <inkscape:path-effect
       effect="bspline"
       id="path-effect558"
       is_visible="true"
       lpeversion="1"
       weight="33.333333"
       steps="2"
       helper_size="0"
       apply_no_weight="true"
       apply_with_weight="true"
       only_selected="false" />
    <inkscape:path-effect
       effect="spiro"
       id="path-effect554"
       is_visible="true"
       lpeversion="1" />
    <inkscape:path-effect
       effect="spiro"
       id="path-effect550"
       is_visible="true"
       lpeversion="1" />
    <inkscape:path-effect
       effect="spiro"
       id="path-effect1097-3"
       is_visible="true"
       lpeversion="1" />
    <inkscape:path-effect
       effect="spiro"
       id="path-effect1097-3-7"
       is_visible="true"
       lpeversion="1" />
    <inkscape:path-effect
       effect="spiro"
       id="path-effect1097-5"
       is_visible="true"
       lpeversion="1" />
    <inkscape:path-effect
       effect="spiro"
       id="path-effect1097-3-7-6"
       is_visible="true"
       lpeversion="1" />
    <inkscape:path-effect
       effect="spiro"
       id="path-effect1097-5-2"
       is_visible="true"
       lpeversion="1" />
    <inkscape:path-effect
       effect="spiro"
       id="path-effect1097-3-9"
       is_visible="true"
       lpeversion="1" />
    <inkscape:path-effect
       effect="spiro"
       id="path-effect1097-1"
       is_visible="true"
       lpeversion="1" />
  </defs>
  <g
     inkscape:label="Layer 1"
     inkscape:groupmode="layer"
     id="layer1">
    <ellipse
       style="fill:#000000;stroke-width:0.285358"
       id="path111"
       cx="94.858383"
       cy="131.28433"
       rx="68.157738"
       ry="63.586948" />
    <ellipse
       style="fill:#f9f9f9;stroke-width:0.262757"
       id="path321"
       cx="94.858383"
       cy="126.78715"
       rx="59.9319"
       ry="59.089767" />
    <path
       style="fill:#000000;stroke-width:0.264583"
       d="m 65.373302,118.43066 c 1.668122,8.34409 6.243065,16.0779 12.752665,21.55801 6.5096,5.48011 14.910105,8.66969 23.416433,8.89096 8.50632,0.22127 17.06129,-2.52726 23.84699,-7.66153 6.78571,-5.13427 11.75654,-12.61977 13.85621,-20.86585 0.50437,-1.98081 0.84809,-4.0025 1.02669,-6.03869"
       id="path1095-6-3"
       inkscape:original-d="m 65.373302,118.43066 c 24.624363,0.64079 49.248458,1.28132 73.872298,1.92159 24.62383,0.64027 0.68472,-4.02553 1.02669,-6.03869"
       inkscape:path-effect="#path-effect1097-3-7" />
    <path
       style="fill:#f2f2f2;stroke-width:0.190129"
       d="m 69.088979,123.85202 c 1.980063,7.04713 6.283489,13.42061 12.080031,17.89082 5.796541,4.47021 13.054415,7.01264 20.37338,7.13679 7.31897,0.12415 14.65889,-2.17067 20.60371,-6.44171 5.94482,-4.27104 10.46193,-10.4949 12.67986,-17.47082 0.36592,-1.15091 0.67103,-2.32115 0.91362,-3.50421"
       id="path1095-5"
       sodipodi:nodetypes="csc"
       inkscape:original-d="m 69.088979,123.85202 c 21.912561,0.37184 43.824881,0.74354 65.736981,1.11508 21.91208,0.37154 0.60931,-2.33598 0.91362,-3.50421"
       inkscape:path-effect="#path-effect1097-5" />
    <path
       style="fill:#000000;stroke-width:0.264583"
       d="m 59.926976,129.0842 c 1.668122,8.34409 6.243064,16.0779 12.752664,21.55801 6.5096,5.48011 14.910104,8.66969 23.416427,8.89096 8.506323,0.22126 17.061293,-2.52726 23.846993,-7.66153 6.78571,-5.13427 11.75654,-12.61977 13.85621,-20.86585 0.50437,-1.98081 0.84809,-4.0025 1.02669,-6.03869"
       id="path1095-6"
       inkscape:original-d="m 59.926976,129.0842 c 24.624363,0.64079 49.248454,1.28132 73.872294,1.92159 24.62383,0.64027 0.68472,-4.02553 1.02669,-6.03869"
       inkscape:path-effect="#path-effect1097-3" />
    <path
       style="fill:#f9f9f9;stroke-width:0.264583"
       id="path329"
       sodipodi:type="arc"
       sodipodi:cx="61.124634"
       sodipodi:cy="84.131866"
       sodipodi:rx="6.7451496"
       sodipodi:ry="0.76877981"
       sodipodi:start="0"
       sodipodi:end="5.2550791"
       sodipodi:arc-type="slice"
       d="m 67.869783,84.131866 a 6.7451496,0.76877981 0 0 1 -5.030492,0.743526 6.7451496,0.76877981 0 0 1 -7.588055,-0.365508 6.7451496,0.76877981 0 0 1 1.172636,-0.929355 6.7451496,0.76877981 0 0 1 8.184237,-0.106986 l -3.483475,0.658323 z" />
    <path
       style="fill:#f2f2f2;stroke-width:0.190129"
       d="m 63.642653,134.50556 c 1.980063,7.04713 6.283489,13.4206 12.08003,17.89081 5.796541,4.47021 13.054414,7.01265 20.373379,7.1368 7.318968,0.12415 14.658888,-2.17067 20.603708,-6.44171 5.94482,-4.27105 10.46193,-10.4949 12.67986,-17.47082 0.36592,-1.15091 0.67103,-2.32115 0.91362,-3.50421"
       id="path1095"
       inkscape:original-d="m 63.642653,134.50556 c 21.912561,0.37184 43.824877,0.74354 65.736977,1.11508 21.91208,0.37154 0.60931,-2.33598 0.91362,-3.50421"
       inkscape:path-effect="#path-effect1097" />
    <path
       style="fill:#4d4d4d;stroke-width:3.9045"
       d="m 58.14253,-15607.864 c 26.398565,-322.798 46.34711,-646.123 59.82971,-969.717 28.42841,-682.307 28.09682,-1365.812 -0.99358,-2048.091"
       id="path1099"
       inkscape:original-d="m 58.14253,-15607.864 c 19.943473,-323.177 39.88672,-646.414 59.82971,-969.717 19.943,-323.303 -0.66215,-1365.33 -0.99358,-2048.091"
       inkscape:path-effect="#path-effect1101" />
    <path
       style="fill:#f9f9f9;stroke-width:0.264583"
       d="M 143.37,161.48434 -124.13957,71.911667"
       id="path1107"
       inkscape:original-d="M 143.37,161.48434 C 54.200411,131.62705 -34.969449,101.76949 -124.13957,71.911667"
       inkscape:path-effect="#path-effect1109" />
    <path
       style="fill:#000000;stroke-width:0.264583"
       d="m 59.926977,129.0842 c 1.668122,8.34409 6.243065,16.0779 12.752666,21.55801 6.5096,5.48011 14.910106,8.66969 23.41643,8.89096 8.506327,0.22127 17.061297,-2.52726 23.846997,-7.66153 6.78571,-5.13427 11.75654,-12.61977 13.85621,-20.86585 0.50437,-1.98081 0.84809,-4.0025 1.02669,-6.03869"
       id="path1095-6-3-2"
       inkscape:original-d="m 59.926977,129.0842 c 24.62437,0.64079 49.248463,1.28132 73.872303,1.92159 24.62383,0.64027 0.68472,-4.02553 1.02669,-6.03869"
       inkscape:path-effect="#path-effect1097-3-7-6" />
    <path
       style="fill:#f2f2f2;stroke-width:0.190129"
       d="m 63.642657,134.50556 c 1.980063,7.04713 6.28349,13.42061 12.080031,17.89082 5.796541,4.47021 13.054415,7.01264 20.373381,7.13679 7.318961,0.12415 14.658891,-2.17067 20.603711,-6.44171 5.94482,-4.27104 10.46193,-10.4949 12.67986,-17.47082 0.36592,-1.15091 0.67103,-2.32115 0.91362,-3.50421"
       id="path1095-5-7"
       sodipodi:nodetypes="csc"
       inkscape:original-d="m 63.642657,134.50556 c 21.91256,0.37184 43.824883,0.74354 65.736983,1.11508 21.91208,0.37154 0.60931,-2.33598 0.91362,-3.50421"
       inkscape:path-effect="#path-effect1097-5-2" />
    <path
       style="fill:#000000;stroke-width:0.264583"
       d="m 54.480657,139.73774 c 1.668122,8.34409 6.243064,16.0779 12.752664,21.55801 6.509599,5.48011 14.910104,8.66969 23.416427,8.89095 8.506322,0.22127 17.061292,-2.52725 23.846992,-7.66152 6.78571,-5.13427 11.75654,-12.61977 13.85621,-20.86585 0.50437,-1.98081 0.84809,-4.0025 1.02669,-6.03869"
       id="path1095-6-0"
       inkscape:original-d="m 54.480657,139.73774 c 24.62436,0.64079 49.248453,1.28132 73.872293,1.92159 24.62383,0.64027 0.68472,-4.02553 1.02669,-6.03869"
       inkscape:path-effect="#path-effect1097-3-9" />
    <path
       style="fill:#f2f2f2;stroke-width:0.190129"
       d="m 58.196337,145.1591 c 1.980063,7.04713 6.283489,13.4206 12.080029,17.89081 5.79654,4.47021 13.054414,7.01264 20.373378,7.13679 7.318964,0.12415 14.658886,-2.17066 20.603706,-6.4417 5.94482,-4.27105 10.46193,-10.4949 12.67986,-17.47082 0.36592,-1.15091 0.67103,-2.32115 0.91362,-3.50421"
       id="path1095-9"
       inkscape:original-d="m 58.196337,145.1591 c 21.91256,0.37184 43.824873,0.74354 65.736973,1.11508 21.91208,0.37154 0.60931,-2.33598 0.91362,-3.50421"
       inkscape:path-effect="#path-effect1097-1" />
  </g>
</svg>
